<mxfile host="app.diagrams.net" modified="2023-04-07T16:32:07.622Z" agent="Mozilla/5.0 (Windows NT 10.0; Win64; x64) AppleWebKit/537.36 (KHTML, like Gecko) Chrome/112.0.0.0 Safari/537.36" etag="7BPTIhgYcRArwYBSRmje" version="21.1.4">
  <diagram name="Page-1" id="FPDV_LwQbvroBTClhenk">
    <mxGraphModel dx="1195" dy="633" grid="1" gridSize="10" guides="1" tooltips="1" connect="1" arrows="1" fold="1" page="1" pageScale="1" pageWidth="850" pageHeight="1100" math="0" shadow="0">
      <root>
        <mxCell id="0" />
        <mxCell id="1" parent="0" />
        <mxCell id="qfjPMOeEmuE7D2GVpSL8-11" value="" style="edgeStyle=orthogonalEdgeStyle;rounded=0;orthogonalLoop=1;jettySize=auto;html=1;" edge="1" parent="1" source="qfjPMOeEmuE7D2GVpSL8-1" target="qfjPMOeEmuE7D2GVpSL8-3">
          <mxGeometry relative="1" as="geometry" />
        </mxCell>
        <mxCell id="qfjPMOeEmuE7D2GVpSL8-1" value="&lt;span style=&quot;font-size: 14px;&quot;&gt;Data &lt;br&gt;Preprocessing&lt;/span&gt;" style="rounded=0;whiteSpace=wrap;html=1;fillColor=#dae8fc;strokeColor=#6c8ebf;" vertex="1" parent="1">
          <mxGeometry x="205" y="290" width="120" height="60" as="geometry" />
        </mxCell>
        <mxCell id="qfjPMOeEmuE7D2GVpSL8-2" value="&lt;font style=&quot;font-size: 14px;&quot;&gt;Train clustering algorithm&lt;/font&gt;" style="rounded=0;whiteSpace=wrap;html=1;fillColor=#f8cecc;strokeColor=#b85450;" vertex="1" parent="1">
          <mxGeometry x="520" y="290" width="120" height="60" as="geometry" />
        </mxCell>
        <mxCell id="qfjPMOeEmuE7D2GVpSL8-12" value="" style="edgeStyle=orthogonalEdgeStyle;rounded=0;orthogonalLoop=1;jettySize=auto;html=1;" edge="1" parent="1" source="qfjPMOeEmuE7D2GVpSL8-3" target="qfjPMOeEmuE7D2GVpSL8-2">
          <mxGeometry relative="1" as="geometry" />
        </mxCell>
        <mxCell id="qfjPMOeEmuE7D2GVpSL8-3" value="&lt;font style=&quot;font-size: 14px;&quot;&gt;Get embeddings for tokenized reviews&lt;/font&gt;" style="rounded=0;whiteSpace=wrap;html=1;fillColor=#f5f5f5;strokeColor=#666666;fontColor=#333333;" vertex="1" parent="1">
          <mxGeometry x="360" y="290" width="120" height="60" as="geometry" />
        </mxCell>
        <mxCell id="qfjPMOeEmuE7D2GVpSL8-10" value="" style="edgeStyle=orthogonalEdgeStyle;rounded=0;orthogonalLoop=1;jettySize=auto;html=1;" edge="1" parent="1" source="qfjPMOeEmuE7D2GVpSL8-4" target="qfjPMOeEmuE7D2GVpSL8-1">
          <mxGeometry relative="1" as="geometry" />
        </mxCell>
        <mxCell id="qfjPMOeEmuE7D2GVpSL8-4" value="&lt;span style=&quot;font-weight: normal;&quot;&gt;&lt;font style=&quot;font-size: 14px;&quot;&gt;Load data&lt;/font&gt;&lt;/span&gt;" style="rounded=0;whiteSpace=wrap;html=1;fillColor=#e1d5e7;strokeColor=#9673a6;fontStyle=1" vertex="1" parent="1">
          <mxGeometry x="50" y="290" width="120" height="60" as="geometry" />
        </mxCell>
        <mxCell id="qfjPMOeEmuE7D2GVpSL8-7" value="&lt;font style=&quot;font-size: 14px;&quot;&gt;Internal Validation&lt;/font&gt;" style="rounded=0;whiteSpace=wrap;html=1;fillColor=#d5e8d4;strokeColor=#82b366;" vertex="1" parent="1">
          <mxGeometry x="680" y="250" width="120" height="60" as="geometry" />
        </mxCell>
        <mxCell id="qfjPMOeEmuE7D2GVpSL8-14" value="" style="endArrow=classic;html=1;rounded=0;entryX=0;entryY=0.5;entryDx=0;entryDy=0;" edge="1" parent="1" target="qfjPMOeEmuE7D2GVpSL8-7">
          <mxGeometry width="50" height="50" relative="1" as="geometry">
            <mxPoint x="640" y="320" as="sourcePoint" />
            <mxPoint x="690" y="270" as="targetPoint" />
          </mxGeometry>
        </mxCell>
        <mxCell id="qfjPMOeEmuE7D2GVpSL8-15" value="&lt;font style=&quot;font-size: 14px;&quot;&gt;External Validation&lt;/font&gt;" style="rounded=0;whiteSpace=wrap;html=1;fillColor=#d5e8d4;strokeColor=#82b366;" vertex="1" parent="1">
          <mxGeometry x="680" y="330" width="120" height="60" as="geometry" />
        </mxCell>
        <mxCell id="qfjPMOeEmuE7D2GVpSL8-16" value="" style="endArrow=classic;html=1;rounded=0;entryX=0;entryY=0.5;entryDx=0;entryDy=0;" edge="1" parent="1" target="qfjPMOeEmuE7D2GVpSL8-15">
          <mxGeometry width="50" height="50" relative="1" as="geometry">
            <mxPoint x="640" y="320" as="sourcePoint" />
            <mxPoint x="350" y="350" as="targetPoint" />
          </mxGeometry>
        </mxCell>
        <mxCell id="qfjPMOeEmuE7D2GVpSL8-17" value="&lt;font style=&quot;font-size: 13px;&quot;&gt;Word2Vec-Average&lt;br&gt;BERT - CLS&lt;br&gt;BERT - Average&lt;/font&gt;" style="text;html=1;strokeColor=none;fillColor=none;align=center;verticalAlign=middle;whiteSpace=wrap;rounded=0;" vertex="1" parent="1">
          <mxGeometry x="360" y="370" width="120" height="30" as="geometry" />
        </mxCell>
        <mxCell id="qfjPMOeEmuE7D2GVpSL8-18" value="&lt;font style=&quot;font-size: 13px;&quot;&gt;KMeans&lt;br&gt;Single linkage hierarchical&lt;br&gt;DBSCAN&lt;br&gt;HDBSCAN&lt;/font&gt;" style="text;html=1;strokeColor=none;fillColor=none;align=center;verticalAlign=middle;whiteSpace=wrap;rounded=0;" vertex="1" parent="1">
          <mxGeometry x="500" y="370" width="160" height="30" as="geometry" />
        </mxCell>
      </root>
    </mxGraphModel>
  </diagram>
</mxfile>
